<?xml version="1.0" encoding="utf-8"?>

<svg xmlns="http://www.w3.org/2000/svg" xmlns:xlink="http://www.w3.org/1999/xlink" style="margin: auto; background: rgb(255, 255, 255); display: block; shape-rendering: auto;" width="197px" height="197px" viewBox="0 0 100 100" preserveAspectRatio="xMidYMid">
<g transform="rotate(0 50 50)">
  <rect x="47" y="8" rx="3" ry="4.32" width="6" height="16" fill="var(--primary-color)">
    <animate attributeName="opacity" values="1;0" keyTimes="0;1" dur="0.44642857142857145s" begin="-0.41454081632653067s" repeatCount="indefinite"></animate>
  </rect>
</g><g transform="rotate(25.714285714285715 50 50)">
  <rect x="47" y="8" rx="3" ry="4.32" width="6" height="16" fill="var(--primary-color)">
    <animate attributeName="opacity" values="1;0" keyTimes="0;1" dur="0.44642857142857145s" begin="-0.38265306122448983s" repeatCount="indefinite"></animate>
  </rect>
</g><g transform="rotate(51.42857142857143 50 50)">
  <rect x="47" y="8" rx="3" ry="4.32" width="6" height="16" fill="var(--primary-color)">
    <animate attributeName="opacity" values="1;0" keyTimes="0;1" dur="0.44642857142857145s" begin="-0.35076530612244905s" repeatCount="indefinite"></animate>
  </rect>
</g><g transform="rotate(77.14285714285714 50 50)">
  <rect x="47" y="8" rx="3" ry="4.32" width="6" height="16" fill="var(--primary-color)">
    <animate attributeName="opacity" values="1;0" keyTimes="0;1" dur="0.44642857142857145s" begin="-0.3188775510204082s" repeatCount="indefinite"></animate>
  </rect>
</g><g transform="rotate(102.85714285714286 50 50)">
  <rect x="47" y="8" rx="3" ry="4.32" width="6" height="16" fill="var(--primary-color)">
    <animate attributeName="opacity" values="1;0" keyTimes="0;1" dur="0.44642857142857145s" begin="-0.2869897959183674s" repeatCount="indefinite"></animate>
  </rect>
</g><g transform="rotate(128.57142857142858 50 50)">
  <rect x="47" y="8" rx="3" ry="4.32" width="6" height="16" fill="var(--primary-color)">
    <animate attributeName="opacity" values="1;0" keyTimes="0;1" dur="0.44642857142857145s" begin="-0.2551020408163266s" repeatCount="indefinite"></animate>
  </rect>
</g><g transform="rotate(154.28571428571428 50 50)">
  <rect x="47" y="8" rx="3" ry="4.32" width="6" height="16" fill="var(--primary-color)">
    <animate attributeName="opacity" values="1;0" keyTimes="0;1" dur="0.44642857142857145s" begin="-0.22321428571428575s" repeatCount="indefinite"></animate>
  </rect>
</g><g transform="rotate(180 50 50)">
  <rect x="47" y="8" rx="3" ry="4.32" width="6" height="16" fill="var(--primary-color)">
    <animate attributeName="opacity" values="1;0" keyTimes="0;1" dur="0.44642857142857145s" begin="-0.19132653061224492s" repeatCount="indefinite"></animate>
  </rect>
</g><g transform="rotate(205.71428571428572 50 50)">
  <rect x="47" y="8" rx="3" ry="4.32" width="6" height="16" fill="var(--primary-color)">
    <animate attributeName="opacity" values="1;0" keyTimes="0;1" dur="0.44642857142857145s" begin="-0.1594387755102041s" repeatCount="indefinite"></animate>
  </rect>
</g><g transform="rotate(231.42857142857142 50 50)">
  <rect x="47" y="8" rx="3" ry="4.32" width="6" height="16" fill="var(--primary-color)">
    <animate attributeName="opacity" values="1;0" keyTimes="0;1" dur="0.44642857142857145s" begin="-0.1275510204081633s" repeatCount="indefinite"></animate>
  </rect>
</g><g transform="rotate(257.14285714285717 50 50)">
  <rect x="47" y="8" rx="3" ry="4.32" width="6" height="16" fill="var(--primary-color)">
    <animate attributeName="opacity" values="1;0" keyTimes="0;1" dur="0.44642857142857145s" begin="-0.09566326530612246s" repeatCount="indefinite"></animate>
  </rect>
</g><g transform="rotate(282.85714285714283 50 50)">
  <rect x="47" y="8" rx="3" ry="4.32" width="6" height="16" fill="var(--primary-color)">
    <animate attributeName="opacity" values="1;0" keyTimes="0;1" dur="0.44642857142857145s" begin="-0.06377551020408165s" repeatCount="indefinite"></animate>
  </rect>
</g><g transform="rotate(308.57142857142856 50 50)">
  <rect x="47" y="8" rx="3" ry="4.32" width="6" height="16" fill="var(--primary-color)">
    <animate attributeName="opacity" values="1;0" keyTimes="0;1" dur="0.44642857142857145s" begin="-0.031887755102040824s" repeatCount="indefinite"></animate>
  </rect>
</g><g transform="rotate(334.2857142857143 50 50)">
  <rect x="47" y="8" rx="3" ry="4.32" width="6" height="16" fill="var(--primary-color)">
    <animate attributeName="opacity" values="1;0" keyTimes="0;1" dur="0.44642857142857145s" begin="0s" repeatCount="indefinite"></animate>
  </rect>
</g>
<!-- [ldio] generated by https://loading.io/ --></svg>