<?xml version="1.0" encoding="utf-8"?>
<!-- Generator: Adobe Illustrator 23.0.0, SVG Export Plug-In . SVG Version: 6.00 Build 0)  -->
<svg version="1.1" id="Layer_1" xmlns="http://www.w3.org/2000/svg" xmlns:xlink="http://www.w3.org/1999/xlink" x="0px" y="0px"
	 viewBox="0 0 512 512" enable-background="new 0 0 512 512" xml:space="preserve">
<g>
	
		<polygon fill="none" stroke="#000000" stroke-width="15.4033" stroke-linecap="round" stroke-linejoin="round" stroke-miterlimit="10" points="
		468,202.15 468,441 313.82,441 296.12,460.24 199.94,460.24 181.72,441 25.31,441 25.31,113.76 216,113.76 216,202.15 
		235.93,202.15 235.93,270 305.68,202.15 	"/>
	
		<path fill="none" stroke="#000000" stroke-width="16.8735" stroke-linecap="round" stroke-linejoin="round" stroke-miterlimit="10" d="
		M477,441l-11.65,34.96c-3.79,11.37-14.44,19.04-26.43,19.04H56.07c-11.98,0-22.63-7.67-26.42-19.05L18,441h163.724l18.219,19.242
		h96.179L313.819,441H477z"/>
	
		<circle fill="none" stroke="#000000" stroke-width="16.8735" stroke-linecap="round" stroke-linejoin="round" stroke-miterlimit="10" cx="163.024" cy="253.724" r="41.953"/>
	
		<path fill="none" stroke="#000000" stroke-width="16.8735" stroke-linecap="round" stroke-linejoin="round" stroke-miterlimit="10" d="
		M253.66,382.98H72.38c1.79-48.52,41.69-87.3,90.64-87.3C211.98,295.68,251.87,334.46,253.66,382.98z"/>
	
		<polygon fill="none" stroke="#000000" stroke-width="18.4247" stroke-linecap="round" stroke-linejoin="round" stroke-miterlimit="10" points="
		495,18 495,202.15 305.68,202.15 235.93,270 235.93,202.15 216,202.15 216,18 	"/>
	
		<polyline fill="none" stroke="#000000" stroke-width="18.4247" stroke-linecap="round" stroke-linejoin="round" stroke-miterlimit="10" points="
		288,103.5 328.5,144 423,49.5 	"/>
</g>
</svg>
